<svg xmlns="http://www.w3.org/2000/svg" enable-background="new 0 0 2000 2000" viewBox="0 0 2000 2000"><ellipse cx="1018.68" cy="1454.563" fill="#f1f3fa" rx="546.133" ry="62.789" class="colorf1f3fa svgShape"/><path fill="#180e34" d="M1475.608 1441.374c-.678-4.403-4.842-7.329-9.292-7.09-6.698.36-13.039-.503-19-2.68l-9.292 2.634 4.354 15.371a3.167 3.167 0 0 0 3.914 2.189l28.767-8.151c.633-.177.728-1.078.549-2.273zM1480.367 1418.93c-.666-4.403-4.83-7.329-9.28-7.09-6.698.36-13.039-.503-19-2.68l-9.292 2.635 4.354 15.371a3.167 3.167 0 0 0 3.914 2.19l28.767-8.151c.632-.179.728-1.079.537-2.275z" class="color180e34 svgShape"/><path fill="#f8bda7" d="M1301.125 1220.346c1.071-1.077 1.927-2.496-.059-3.403-3.462-1.588-9.304 10.006-9.304 10.006l1.452 6.187s21.855 2.811 21.581-10.917c-.179-10.836-9.708-4.823-13.67-1.873z" class="colorf8bda7 svgShape"/><path fill="#180e34" d="M1280.555 1243.07c-33.479-3.058-147.447 95.292-147.447 95.292l-61.829 66.861s-.036 29.415 37.357 31.075c85.624 3.802 177.702-112.4 177.702-112.4l155.091 89.234c.523 1.59 12.552-2.383 12.028-3.972-.001.001-118.723-161.14-172.902-166.09z" class="color180e34 svgShape"/><path fill="#f66531" d="m1291.631 1225.273-108.365 42.118-58.403-87.828-9.779 21.628s34.466 100.832 64.839 111.945c9.482 3.471 113.921-78.61 113.921-78.61 1.356-.327-.857-9.581-2.213-9.253z" class="colorf66531 svgShape"/><path fill="#28214f" d="M1286.289 1258.713c-33.467-3.057-147.447 95.292-147.447 95.292l-61.818 66.861s-.048 29.414 37.357 31.075c85.624 3.802 177.702-112.4 177.702-112.4l144.622 95.72c.571 1.594 12.313-2.63 11.742-4.225 0 .001-107.967-167.373-162.158-172.323z" class="color28214f svgShape"/><path fill="#f66531" d="M1118.51 1167.802c-10.529-17.728-48.671-29.767-50.908-27.769-40.534 36.304-5.699 285.297-5.699 285.297 11.957 11.518 120.054-83.556 120.292-126.202 0-.001-48.695-106.118-63.685-131.326z" class="colorf66531 svgShape"/><path fill="#f8bda7" d="M1101.324 1045.319c-52.062 3.729-33.716 94.713-33.716 94.713-.083 14.877 43.567 26.959 46.054 21.672l1.428-15.226s17.971 1.984 27.268-11.736c9.553-14.092 12.003-93.222-41.034-89.423z" class="colorf8bda7 svgShape"/><path fill="#3aefd0" d="M501.612 1096.604c14.737 2.672 30.509.47 44.375 6.216 15.823 6.609 25.783 22.297 33.094 37.811 7.264 15.496 13.149 32.215 24.818 44.729 19.419 20.844 132.037 34.969 100.058 138.245-9.379 30.289-26.637 60.228-56.432 71.117-29.731 10.861-66.827 1.125-84.717-25.042-14.14-20.717-15.66-48.427-31.2-68.142-13.809-17.445-38.093-28.345-42.317-50.175-4.439-22.927 16.304-47.447 5.917-68.362-4.302-8.701-13.071-14.123-20.676-20.212-18.841-15.185-32.217-37.046-37.172-60.705-4.936-23.705-1.393-49.081 9.889-70.499.121 30.63 24.223 59.469 54.363 65.019z" class="color3aefd0 svgShape"/><path fill="#1fddc1" d="M647.437 1351.901c-24.919-26.927-42.813-50.261-50.71-60.386-1.742-11.749-.816-25.761 2.981-37.71 1.806-6.174 4.788-11.946 8.411-17.309 3.548-5.446 8.474-9.771 13.625-13.85-5.414 3.657-10.721 7.729-14.751 13.041-4.068 5.139-7.585 10.916-9.944 17.142-3.902 10.073-5.89 21.064-5.999 31.38-33.711-44.109-57.808-65.916-26.522-111.479-11.35 13.847-19.458 26.916-18.113 46.344-14.965-24.514-25.604-45.078-7.647-74.772-10.061 13.649-12.543 24.38-11.602 40.35-.261-.208-.539-.285-.8-.476-7.81-14.452-15.128-29.167-21.472-44.47l-.543.162c3.491 14.024 8.749 27.543 14.76 40.728-6.199-1.959-10.831-1.952-16.758 4.446 6.898-4.814 13.457-4.437 20.079 2.742 8.502 17.652 7.26 13.414 8.204 16.101l.157-.069c6.181 11.161 13.048 21.894 20.263 32.394-7.699-4.758-18.33-9.457-27.365-9.24-4.91.04-9.73 1.37-13.835 3.859 4.347-2.086 9.116-2.876 13.774-2.466 12.229.876 28.608 12.568 36.128 20.514l.06-.07c6.251 8.762 12.655 18.016 31.272 40.815.004.057-.003.113.001.17l1.853 2.369.21-.006c2.397 2.915 4.727 5.889 7.156 8.775-12.257-6.674-30.355-14.09-44.324-15.839-6.422-.89-13.039-1.002-19.374.22 6.423-.761 12.907-.168 19.168 1.139 17.786 3.714 46.859 20.136 53.447 24.92l-1.188-1.37c12.55 14.506 25.446 28.668 38.965 42.324l.433-.423zm-120.27-166.898c.014.221-.017.438-.001.658-.078-.144-.154-.289-.232-.432l.233-.226z" class="color1fddc1 svgShape"/><path fill="#3aefd0" d="M599.613 969.965c10.161 3.451 21.57 3.557 30.79 9.093 10.514 6.355 15.916 18.525 19.457 30.291 3.511 11.749 5.914 24.219 12.862 34.319 11.559 16.823 89.874 38.73 56.301 108.539-9.846 20.474-25.239 39.866-47.504 44.435-22.216 4.556-47.476-6.263-57.389-26.696-7.832-16.175-5.981-35.972-14.911-51.585-7.943-13.821-24-24.111-24.687-40.028-.723-16.716 16.566-31.901 11.415-47.82-2.13-6.62-7.771-11.389-12.517-16.508-11.747-12.752-18.917-29.656-19.929-46.946-.994-17.32 4.198-34.928 14.456-48.915-3.149 21.721 10.883 44.704 31.656 51.821z" class="color3aefd0 svgShape"/><path fill="#1fddc1" d="M675.981 1166.287c-19.391-28.422-28.547-46.764-29.516-48.478.137-17.628 6.826-35.404 24.964-45.834-16.361 7.83-25.103 21.887-28.148 39.919-18.326-33.228-34.047-52.4-7.125-81.336-9.904 8.977-16.157 16.928-17.724 30.086-7.524-17.856-13.85-33.249 2.473-52.953-8.578 8.616-11.466 15.97-12.484 27.369-.164-.175-.352-.259-.517-.422-4.008-11.067-7.64-22.268-10.518-33.783l-.402.058c.993 10.306 3.291 20.443 6.157 30.422-4.198-2.048-7.475-2.522-12.346 1.38 5.157-2.563 9.829-1.973 13.94 4.064 3.826 12.335 2.342 7.118 4.114 12.277l.118-.032c3.201 8.563 6.934 16.894 10.939 25.098-8.219-6.938-18.626-12.363-28.629-8.166 12.911-3.988 26.631 8.291 33.457 18.062l.051-.043c5.897 11.558 7.181 13.91 17.891 31.923-.014.144-.048.279-.059.424l1.063 1.875.33.04c1.372 2.286 2.567 4.681 3.964 6.952-11.822-8.924-28.69-18.429-43.488-17.798 17.212.515 40.125 17.713 48.704 26.137l-.696-1.097c7.36 11.606 15.003 23.004 23.141 34.109l.346-.253zm-67.598-130.978c-.013.157-.058.309-.07.468-.041-.11-.079-.222-.12-.332l.19-.136z" class="color1fddc1 svgShape"/><path fill="#b3b9f0" d="m1381.216 1185.24-24.984-20.059a2.093 2.093 0 0 0-2.939.318l-61.734 76.498a2.118 2.118 0 0 0-.274 2.176l14.443 31.923c.642 1.414 2.546 1.663 3.521.462l72.275-88.362a2.091 2.091 0 0 0-.308-2.956z" class="colorb3b9f0 svgShape"/><path fill="#efeff9" d="m1371.235 1189.543-18.988-15.243a1.597 1.597 0 0 0-2.237.242l-46.899 58.13a1.577 1.577 0 0 0-.214 1.654l10.981 24.257c.476 1.075 1.927 1.264 2.677.351l54.917-67.145a1.588 1.588 0 0 0-.237-2.246z" class="colorefeff9 svgShape"/><path fill="#f8bda7" d="M1317.709 1230.759c-11.231-3.55-28.006 19.454-30.266 22.634 1.214-1.764 6.103-9.402 1.963-10.708-4.664-1.476-14.241 20.978-14.241 20.978l5.033 10.058s19.428 1.562 26.186-10.859c6.77-12.428-8.673-12.549-8.673-12.549s32.05-15.746 19.998-19.554z" class="colorf8bda7 svgShape"/><path fill="#f97c55" d="m1274.356 1261.148-97.039 32.462s-44.602-79.069-61.948-103.825c-10.053-14.363-29.005-20.377-43.056-8.595-12.206 10.231-7.305 29.258 1.737 43.803 19.452 31.28 73.31 110.747 90.502 112.813 30.802 3.704 117.859-62.073 117.859-62.073 2.236-1.238-5.806-15.823-8.055-14.585z" class="colorf97c55 svgShape"/><path fill="#fcb94c" d="M1382.032 1056.548c0 27.648-22.357 50.176-50.176 50.176-9.899 0-18.944-2.901-26.795-7.68l-23.381 7.68 7.851-23.21c-4.95-7.851-7.851-17.067-7.851-26.966 0-27.648 22.528-50.176 50.176-50.176 27.819 0 50.176 22.528 50.176 50.176z" class="colorfcb94c svgShape"/><path fill="#b2c1f9" d="M887.736 451.508h-22.233l-.083-2.483c-.833-25.067-21.15-44.683-46.217-44.683-20.45 0-37 11.5-43.183 30.05l-4.867-1.633c6.817-20.367 25.667-33.55 48.05-33.55 27.017 0 49.05 20.533 51.2 47.167h17.333v5.132z" class="colorb2c1f9 svgShape"/><path fill="#b2c1f9" d="M856.32 449.892h-5.133c0-16.867-13.717-30.583-30.583-30.583v-5.133c19.682-.001 35.716 16.032 35.716 35.716zM723.986 484.941h-28.433v-5.133h23.367c1.35-27.117 23.817-48.767 51.267-48.767 18.283 0 35.317 9.833 44.467 25.667l-4.433 2.567c-8.233-14.25-23.583-23.1-40.033-23.1-25.483 0-46.2 20.717-46.2 46.2v2.566z" class="colorb2c1f9 svgShape"/><path fill="#b2c1f9" d="M795.386 467.208c-5.417-9.35-15.467-15.15-26.25-15.15v-5.133c12.6 0 24.35 6.8 30.683 17.717l-4.433 2.566zM906.303 447.325h25.067v5.133h-25.067zM677.236 479.808h9.883v5.133h-9.883zM868.403 482.375h-5.133c0-6.333-5.15-11.483-11.5-11.483v-5.133c9.166-.001 16.633 7.449 16.633 16.616zM1387.303 524.425h-22.233l-.083-2.483c-.817-25.067-21.117-44.683-46.2-44.683-20.45 0-37 11.517-43.2 30.05l-4.867-1.633c6.833-20.383 25.7-33.55 48.067-33.55 27.033 0 49.05 20.533 51.183 47.167h17.333v5.132z" class="colorb2c1f9 svgShape"/><path fill="#b2c1f9" d="M1355.886 522.808h-5.133c0-16.867-13.717-30.583-30.583-30.583v-5.133c19.683-.001 35.716 16.033 35.716 35.716zM1223.553 557.858h-28.433v-5.133h23.367c1.35-27.117 23.817-48.767 51.267-48.767 18.283 0 35.317 9.833 44.467 25.667l-4.433 2.567c-8.233-14.25-23.583-23.1-40.033-23.1-25.483 0-46.2 20.717-46.2 46.2v2.566z" class="colorb2c1f9 svgShape"/><path fill="#b2c1f9" d="M1294.953 540.125c-5.417-9.35-15.467-15.15-26.25-15.15v-5.133c12.6 0 24.35 6.8 30.683 17.717l-4.433 2.566zM1405.87 520.242h25.067v5.133h-25.067zM1176.82 552.725h9.867v5.133h-9.867zM1367.97 555.292h-5.133c0-6.333-5.15-11.483-11.483-11.483v-5.133c9.166-.001 16.616 7.449 16.616 16.616zM1263.02 755.925h103.2v5.133h-103.2zM1339.453 800.591h23.467v5.133h-23.467zM1380.62 800.591h120.35v5.133h-120.35z" class="colorb2c1f9 svgShape"/><path fill="#ffffff" d="M716.831 691.108c32.945 0 32.999-51.2 0-51.2-32.945 0-33 51.2 0 51.2zM1322.72 1075.141c-.65 0-1.317-.25-1.817-.75l-10.55-10.533c-1-1-1-2.617 0-3.633 1-1 2.633-1 3.633 0l8.733 8.733 26.933-26.933c1-1 2.633-1 3.633 0s1 2.633 0 3.633l-28.75 28.733a2.57 2.57 0 0 1-1.815.75z" class="colorfff svgShape"/><path fill="#f5f5fb" d="M1002.36 699.108H690.238c-27.167 0-49.094 22.051-49.094 49.219v655.328c0 27.167 21.926 49.218 49.094 49.218h312.122c27.048 0 49.094-22.051 49.094-49.218V748.327c0-27.168-22.046-49.219-49.094-49.219z" class="colorf5f5fb svgShape"/><path fill="#cfd8f9" d="M1002.36 699.108H690.238c-27.167 0-49.094 22.051-49.094 49.219v655.328c0 27.167 21.926 49.218 49.094 49.218h312.122c27.048 0 49.094-22.051 49.094-49.218V748.327c0-27.168-22.046-49.219-49.094-49.219z" class="colorcfd8f9 svgShape"/><path fill="#b2c1f9" d="M1002.36 718.723H690.238c-16.198 0-29.481 13.279-29.481 29.604v655.328c0 16.325 13.283 29.482 29.481 29.482h312.122c16.204 0 29.481-13.157 29.481-29.482V748.327c0-16.325-13.277-29.604-29.481-29.604z" class="colorb2c1f9 svgShape"/><path fill="#cfd8f9" d="m973.974 699.108-30.82 25.462c-8.53 7.066-19.369 10.965-30.582 10.965H780.026a48.553 48.553 0 0 1-30.701-10.965l-30.701-25.462h255.35z" class="colorcfd8f9 svgShape"/><path fill="#ffffff" d="M774.686 709.825c-4.235-.53-7.947 2.474-8.483 6.714-.345 4.24 2.653 7.95 6.71 8.303 4.247.531 7.959-2.473 8.483-6.714.357-4.063-2.641-7.773-6.71-8.303zM924.007 714.955H798.849a2.387 2.387 0 0 0-2.38 2.379 2.386 2.386 0 0 0 2.38 2.379h125.158a2.386 2.386 0 0 0 2.379-2.379 2.385 2.385 0 0 0-2.379-2.379zM929.942 1232.4H762.659c-11.356 0-20.561 9.206-20.561 20.562v31.818c0 11.361 9.21 20.571 20.571 20.571h167.27c11.315 0 20.573-9.258 20.573-20.573v-31.807c0-11.362-9.209-20.571-20.57-20.571zM999.909 834.743H692.665c-4.14 0-7.555 3.289-7.555 7.431v48.853c0 4.142 3.414 7.431 7.555 7.431h307.244c4.14 0 7.555-3.289 7.555-7.431v-48.853c0-4.142-3.415-7.431-7.555-7.431zM999.933 972.826H692.677a7.528 7.528 0 0 0-7.531 7.532v48.742a7.529 7.529 0 0 0 7.531 7.532h307.256a7.529 7.529 0 0 0 7.531-7.532v-48.742a7.528 7.528 0 0 0-7.531-7.532zM999.933 1111H692.677a7.528 7.528 0 0 0-7.531 7.532v48.742a7.528 7.528 0 0 0 7.531 7.532h307.256a7.528 7.528 0 0 0 7.531-7.532v-48.742a7.528 7.528 0 0 0-7.531-7.532z" class="colorfff svgShape"/><path fill="#4f7dfc" d="M796.394 1268.537c-1.185-.564-2.788-1.068-4.799-1.523-1.457-.38-2.574-.726-3.352-1.033-.767-.302-1.331-.658-1.69-1.067-.359-.406-.544-.91-.544-1.523 0-.899.36-1.591 1.069-2.066.719-.47 1.69-.707 2.934-.707 1.127 0 2.069.242 2.846.726.758.485 1.205 1.088 1.311 1.809.185.41.525.613 1.02.613h3.206a.66.66 0 0 0 .515-.222.668.668 0 0 0 .204-.489c-.039-.974-.418-1.947-1.127-2.931-.719-.979-1.749-1.8-3.118-2.452-1.37-.658-2.982-.984-4.857-.984-1.788 0-3.342.296-4.692.88-1.341.588-2.37 1.394-3.089 2.422-.738 1.028-1.088 2.194-1.088 3.504 0 1.943.622 3.431 1.855 4.468 1.243 1.038 3.196 1.874 5.868 2.506 1.613.43 2.846.795 3.662 1.097.826.306 1.448.662 1.846 1.067.408.406.612.914.612 1.522 0 .93-.398 1.656-1.205 2.185-.797.529-1.992.796-3.565.796-1.409 0-2.497-.257-3.303-.781-.797-.519-1.312-1.161-1.545-1.928a1.719 1.719 0 0 0-.447-.474c-.155-.114-.35-.168-.602-.168h-3.08a.682.682 0 0 0-.505.217.712.712 0 0 0-.204.494c.048 1.171.447 2.254 1.185 3.247.738.994 1.836 1.794 3.284 2.407 1.438.608 3.177.91 5.217.91 1.914 0 3.595-.282 5.062-.845 1.457-.563 2.584-1.38 3.381-2.452.797-1.073 1.205-2.343 1.205-3.811 0-1.33-.282-2.427-.845-3.282-.565-.857-1.439-1.564-2.625-2.132zM807.781 1257.03h-3.255a.84.84 0 0 0-.573.217c-.155.148-.233.346-.233.593l-.001 22.074c0 .222.078.415.233.573a.79.79 0 0 0 .573.237h3.255c.252 0 .447-.079.593-.237a.821.821 0 0 0 .223-.573l.001-22.074a.815.815 0 0 0-.223-.593c-.146-.143-.34-.217-.593-.217zM832.456 1267.454h-8.131a.755.755 0 0 0-.563.237.766.766 0 0 0-.243.578v1.859c0 .227.078.42.243.578.155.158.34.237.564.237h4.138v1.048c0 1.715-.486 3-1.457 3.86-.962.855-2.254 1.285-3.867 1.285-1.564 0-2.817-.435-3.711-1.305-.913-.865-1.389-2.214-1.428-4.043-.019-.677-.039-1.67-.039-2.981 0-1.329.02-2.323.039-2.98.039-1.78.515-3.094 1.409-3.944.884-.845 2.128-1.265 3.701-1.265 1.36 0 2.429.291 3.216.88.787.583 1.341 1.294 1.661 2.13.087.203.194.351.311.44.107.094.272.138.495.138h3.565a.763.763 0 0 0 .544-.203.73.73 0 0 0 .194-.51c-.039-1.018-.447-2.051-1.214-3.099-.768-1.047-1.894-1.927-3.4-2.639-1.506-.712-3.293-1.067-5.372-1.067-3.06 0-5.479.796-7.238 2.388-1.768 1.591-2.691 3.786-2.779 6.584-.02.658-.039 1.705-.039 3.148s.019 2.496.039 3.149c.116 2.866 1.03 5.101 2.749 6.702 1.739 1.602 4.158 2.403 7.267 2.403 2.059 0 3.847-.371 5.392-1.117 1.535-.741 2.72-1.809 3.546-3.198.845-1.389 1.253-3.015 1.253-4.889v-3.588a.795.795 0 0 0-.233-.578.831.831 0 0 0-.612-.238zM855.452 1257.03h-2.914c-.253 0-.447.079-.593.237a.869.869 0 0 0-.224.608l-.001 14.759-9.676-15.031c-.223-.386-.554-.573-.991-.573h-2.642a.755.755 0 0 0-.583.237c-.156.158-.224.361-.224.608l-.001 22.04c0 .222.078.415.243.573.155.158.34.237.564.237h2.924a.793.793 0 0 0 .593-.237.813.813 0 0 0 .214-.573l.001-14.458 9.646 14.695c.233.381.563.573 1.02.573h2.672a.777.777 0 0 0 .573-.237.833.833 0 0 0 .233-.608l.001-22.005a.833.833 0 0 0-.233-.608.808.808 0 0 0-.602-.237zM887.541 1257.029h-3.118a.811.811 0 0 0-.602.237.833.833 0 0 0-.233.608l-.001 13.775c0 1.784-.428 3.129-1.283 4.029-.836.904-2.04 1.354-3.595 1.354-1.564 0-2.769-.45-3.604-1.354-.855-.9-1.282-2.244-1.282-4.029l.001-13.775a.833.833 0 0 0-.233-.608.813.813 0 0 0-.602-.237h-3.119a.793.793 0 0 0-.593.237c-.146.158-.214.361-.214.608l-.001 13.775c0 3.163.835 5.521 2.526 7.078 1.7 1.557 4.08 2.333 7.15 2.333 3.05 0 5.411-.776 7.092-2.333 1.681-1.557 2.526-3.915 2.526-7.078l.001-13.775a.868.868 0 0 0-.223-.608c-.146-.158-.35-.237-.593-.237zM909.749 1258.956c-1.564-1.285-3.701-1.927-6.431-1.927h-9.074c-.253 0-.447.079-.593.237-.156.159-.224.361-.224.608l-.001 22.039c0 .222.078.415.243.573.156.158.34.237.573.237h3.245a.891.891 0 0 0 .622-.222c.155-.143.233-.341.233-.588v-7.923h4.974c2.73 0 4.867-.628 6.431-1.879 1.554-1.255 2.332-3.099 2.332-5.536.002-2.46-.775-4.333-2.33-5.619zm-3.604 8.31c-.69.622-1.69.934-2.992.934h-4.877v-7.38h4.877c1.35 0 2.361.327 3.021.979.67.658 1.001 1.572 1 2.743 0 1.196-.34 2.105-1.029 2.724z" class="color4f7dfc svgShape"/><circle cx="786.022" cy="1386.338" r="8.376" fill="#f1f3fa" class="colorf1f3fa svgShape"/><circle cx="846.281" cy="1386.338" r="8.376" fill="#f1f3fa" class="colorf1f3fa svgShape"/><circle cx="906.552" cy="1386.338" r="8.376" fill="#f1f3fa" class="colorf1f3fa svgShape"/><path fill="#f1f3fa" d="M694.859 794.002h89.207v21.055h-89.207zM694.859 931.968h89.207v21.055h-89.207zM694.859 1069.934h89.207v21.055h-89.207z" class="colorf1f3fa svgShape"/><path fill="#28214f" d="M1155.165 1020.144c-8.387-8.914-20.677-13.346-32.848-14.552-22.902-2.266-46.637 6.407-62.674 22.9-16.049 16.493-24.056 40.462-21.153 63.286 2.177 17.164 10.136 33.712 8.733 50.956-1.309 15.981-10.446 30.066-18.572 43.885-8.138 13.818-15.74 29.304-13.527 45.184 1.475 10.597 8.031 19.963 16.692 26.031 4.378 3.06 24.449 12.998 28.862 6.223 1.475-2.255-2.498-13.462-2.736-16.586-.452-5.955-.119-11.97.928-17.849 2.165-12.201 7.483-23.889 15.633-33.261 9.97-11.463 24.532-21.276 25.745-36.416 1.558-19.493-20.606-35.514-17.596-54.836 1.701-10.908 11.267-19.059 21.474-23.283 10.196-4.224 21.355-5.511 31.908-8.739 10.565-3.228 21.177-9.08 25.9-19.058 5.235-11.062 1.606-24.971-6.769-33.885z" class="color28214f svgShape"/></svg>